<mxfile host="app.diagrams.net" agent="Mozilla/5.0 (Windows NT 10.0; Win64; x64) AppleWebKit/537.36 (KHTML, like Gecko) Chrome/135.0.0.0 Safari/537.36" version="26.2.14">
  <diagram name="Страница — 1" id="mYyoC8rn-sihl2HoJfJP">
    <mxGraphModel dx="1869" dy="562" grid="1" gridSize="10" guides="1" tooltips="1" connect="1" arrows="1" fold="1" page="1" pageScale="1" pageWidth="827" pageHeight="1169" background="none" math="0" shadow="0">
      <root>
        <mxCell id="0" />
        <mxCell id="1" parent="0" />
        <mxCell id="yI8B-SKyxIVj-lXM26K--49" style="edgeStyle=orthogonalEdgeStyle;rounded=0;orthogonalLoop=1;jettySize=auto;html=1;exitX=0.5;exitY=0;exitDx=0;exitDy=0;entryX=0;entryY=0;entryDx=0;entryDy=0;" parent="1" source="yI8B-SKyxIVj-lXM26K--1" target="yI8B-SKyxIVj-lXM26K--2" edge="1">
          <mxGeometry relative="1" as="geometry" />
        </mxCell>
        <mxCell id="yI8B-SKyxIVj-lXM26K--50" style="edgeStyle=orthogonalEdgeStyle;rounded=0;orthogonalLoop=1;jettySize=auto;html=1;exitX=0.5;exitY=1;exitDx=0;exitDy=0;entryX=0;entryY=1;entryDx=0;entryDy=0;" parent="1" source="yI8B-SKyxIVj-lXM26K--1" target="yI8B-SKyxIVj-lXM26K--4" edge="1">
          <mxGeometry relative="1" as="geometry" />
        </mxCell>
        <mxCell id="zDislpeY9oyZwLALXK-k-2" style="edgeStyle=orthogonalEdgeStyle;rounded=0;orthogonalLoop=1;jettySize=auto;html=1;exitX=0.5;exitY=1;exitDx=0;exitDy=0;entryX=0;entryY=1;entryDx=0;entryDy=0;" edge="1" parent="1" source="yI8B-SKyxIVj-lXM26K--1" target="zDislpeY9oyZwLALXK-k-1">
          <mxGeometry relative="1" as="geometry" />
        </mxCell>
        <mxCell id="yI8B-SKyxIVj-lXM26K--1" value="Пинг - понг" style="rounded=1;whiteSpace=wrap;html=1;fillColor=#ffcd28;strokeColor=#d79b00;gradientColor=#ffa500;" parent="1" vertex="1">
          <mxGeometry x="-80" y="600" width="120" height="40" as="geometry" />
        </mxCell>
        <mxCell id="yI8B-SKyxIVj-lXM26K--11" style="edgeStyle=orthogonalEdgeStyle;rounded=0;orthogonalLoop=1;jettySize=auto;html=1;exitX=1;exitY=0;exitDx=0;exitDy=0;entryX=0;entryY=0.5;entryDx=0;entryDy=0;" parent="1" source="yI8B-SKyxIVj-lXM26K--2" target="yI8B-SKyxIVj-lXM26K--7" edge="1">
          <mxGeometry relative="1" as="geometry" />
        </mxCell>
        <mxCell id="yI8B-SKyxIVj-lXM26K--12" style="edgeStyle=orthogonalEdgeStyle;rounded=0;orthogonalLoop=1;jettySize=auto;html=1;exitX=1;exitY=0.5;exitDx=0;exitDy=0;entryX=0;entryY=0.5;entryDx=0;entryDy=0;" parent="1" source="yI8B-SKyxIVj-lXM26K--2" target="yI8B-SKyxIVj-lXM26K--8" edge="1">
          <mxGeometry relative="1" as="geometry" />
        </mxCell>
        <mxCell id="yI8B-SKyxIVj-lXM26K--13" style="edgeStyle=orthogonalEdgeStyle;rounded=0;orthogonalLoop=1;jettySize=auto;html=1;exitX=1;exitY=1;exitDx=0;exitDy=0;entryX=0;entryY=0.5;entryDx=0;entryDy=0;" parent="1" source="yI8B-SKyxIVj-lXM26K--2" target="yI8B-SKyxIVj-lXM26K--9" edge="1">
          <mxGeometry relative="1" as="geometry" />
        </mxCell>
        <mxCell id="yI8B-SKyxIVj-lXM26K--2" value="Спрайты" style="rounded=1;whiteSpace=wrap;html=1;fillColor=#008a00;fontColor=#ffffff;strokeColor=#005700;" parent="1" vertex="1">
          <mxGeometry x="80" y="360" width="120" height="40" as="geometry" />
        </mxCell>
        <mxCell id="yI8B-SKyxIVj-lXM26K--44" style="edgeStyle=orthogonalEdgeStyle;rounded=0;orthogonalLoop=1;jettySize=auto;html=1;exitX=1;exitY=0;exitDx=0;exitDy=0;entryX=0;entryY=0.5;entryDx=0;entryDy=0;" parent="1" source="yI8B-SKyxIVj-lXM26K--4" target="yI8B-SKyxIVj-lXM26K--32" edge="1">
          <mxGeometry relative="1" as="geometry" />
        </mxCell>
        <mxCell id="yI8B-SKyxIVj-lXM26K--45" style="edgeStyle=orthogonalEdgeStyle;rounded=0;orthogonalLoop=1;jettySize=auto;html=1;exitX=1;exitY=0.5;exitDx=0;exitDy=0;entryX=0;entryY=0.5;entryDx=0;entryDy=0;" parent="1" source="yI8B-SKyxIVj-lXM26K--4" target="yI8B-SKyxIVj-lXM26K--33" edge="1">
          <mxGeometry relative="1" as="geometry" />
        </mxCell>
        <mxCell id="yI8B-SKyxIVj-lXM26K--46" style="edgeStyle=orthogonalEdgeStyle;rounded=0;orthogonalLoop=1;jettySize=auto;html=1;exitX=1;exitY=1;exitDx=0;exitDy=0;entryX=0;entryY=0.5;entryDx=0;entryDy=0;" parent="1" source="yI8B-SKyxIVj-lXM26K--4" target="yI8B-SKyxIVj-lXM26K--34" edge="1">
          <mxGeometry relative="1" as="geometry" />
        </mxCell>
        <mxCell id="yI8B-SKyxIVj-lXM26K--4" value="Действия" style="rounded=1;whiteSpace=wrap;html=1;fillColor=#008a00;fontColor=#ffffff;strokeColor=#005700;" parent="1" vertex="1">
          <mxGeometry x="80" y="800" width="120" height="40" as="geometry" />
        </mxCell>
        <mxCell id="yI8B-SKyxIVj-lXM26K--15" style="edgeStyle=orthogonalEdgeStyle;rounded=0;orthogonalLoop=1;jettySize=auto;html=1;exitX=1;exitY=0;exitDx=0;exitDy=0;entryX=0;entryY=0.5;entryDx=0;entryDy=0;" parent="1" source="yI8B-SKyxIVj-lXM26K--7" target="yI8B-SKyxIVj-lXM26K--14" edge="1">
          <mxGeometry relative="1" as="geometry">
            <mxPoint x="580" y="80" as="targetPoint" />
          </mxGeometry>
        </mxCell>
        <mxCell id="yI8B-SKyxIVj-lXM26K--17" style="edgeStyle=orthogonalEdgeStyle;rounded=0;orthogonalLoop=1;jettySize=auto;html=1;exitX=1;exitY=0.5;exitDx=0;exitDy=0;entryX=0;entryY=0.5;entryDx=0;entryDy=0;" parent="1" source="yI8B-SKyxIVj-lXM26K--7" target="yI8B-SKyxIVj-lXM26K--16" edge="1">
          <mxGeometry relative="1" as="geometry" />
        </mxCell>
        <mxCell id="yI8B-SKyxIVj-lXM26K--19" style="edgeStyle=orthogonalEdgeStyle;rounded=0;orthogonalLoop=1;jettySize=auto;html=1;exitX=1;exitY=1;exitDx=0;exitDy=0;entryX=0;entryY=0.5;entryDx=0;entryDy=0;" parent="1" source="yI8B-SKyxIVj-lXM26K--7" target="yI8B-SKyxIVj-lXM26K--18" edge="1">
          <mxGeometry relative="1" as="geometry" />
        </mxCell>
        <mxCell id="yI8B-SKyxIVj-lXM26K--7" value="Правая ракетка" style="rounded=1;whiteSpace=wrap;html=1;fillColor=#76608a;strokeColor=#432D57;fontColor=#ffffff;" parent="1" vertex="1">
          <mxGeometry x="280" y="120" width="120" height="40" as="geometry" />
        </mxCell>
        <mxCell id="yI8B-SKyxIVj-lXM26K--22" style="edgeStyle=orthogonalEdgeStyle;rounded=0;orthogonalLoop=1;jettySize=auto;html=1;exitX=1;exitY=0;exitDx=0;exitDy=0;entryX=0;entryY=0.5;entryDx=0;entryDy=0;" parent="1" source="yI8B-SKyxIVj-lXM26K--8" target="yI8B-SKyxIVj-lXM26K--21" edge="1">
          <mxGeometry relative="1" as="geometry" />
        </mxCell>
        <mxCell id="yI8B-SKyxIVj-lXM26K--25" style="edgeStyle=orthogonalEdgeStyle;rounded=0;orthogonalLoop=1;jettySize=auto;html=1;exitX=1;exitY=0.5;exitDx=0;exitDy=0;entryX=0;entryY=0.5;entryDx=0;entryDy=0;" parent="1" source="yI8B-SKyxIVj-lXM26K--8" target="yI8B-SKyxIVj-lXM26K--23" edge="1">
          <mxGeometry relative="1" as="geometry" />
        </mxCell>
        <mxCell id="yI8B-SKyxIVj-lXM26K--27" style="edgeStyle=orthogonalEdgeStyle;rounded=0;orthogonalLoop=1;jettySize=auto;html=1;exitX=1;exitY=1;exitDx=0;exitDy=0;entryX=0;entryY=0.5;entryDx=0;entryDy=0;" parent="1" source="yI8B-SKyxIVj-lXM26K--8" target="yI8B-SKyxIVj-lXM26K--26" edge="1">
          <mxGeometry relative="1" as="geometry" />
        </mxCell>
        <mxCell id="yI8B-SKyxIVj-lXM26K--8" value="Левая ракетка&amp;nbsp;" style="rounded=1;whiteSpace=wrap;html=1;fillColor=#76608a;fontColor=#ffffff;strokeColor=#432D57;" parent="1" vertex="1">
          <mxGeometry x="280" y="360" width="120" height="40" as="geometry" />
        </mxCell>
        <mxCell id="yI8B-SKyxIVj-lXM26K--30" style="edgeStyle=orthogonalEdgeStyle;rounded=0;orthogonalLoop=1;jettySize=auto;html=1;exitX=1;exitY=0;exitDx=0;exitDy=0;entryX=0;entryY=0.5;entryDx=0;entryDy=0;" parent="1" source="yI8B-SKyxIVj-lXM26K--9" target="yI8B-SKyxIVj-lXM26K--28" edge="1">
          <mxGeometry relative="1" as="geometry" />
        </mxCell>
        <mxCell id="yI8B-SKyxIVj-lXM26K--31" style="edgeStyle=orthogonalEdgeStyle;rounded=0;orthogonalLoop=1;jettySize=auto;html=1;exitX=1;exitY=1;exitDx=0;exitDy=0;entryX=0;entryY=0.5;entryDx=0;entryDy=0;" parent="1" source="yI8B-SKyxIVj-lXM26K--9" target="yI8B-SKyxIVj-lXM26K--29" edge="1">
          <mxGeometry relative="1" as="geometry" />
        </mxCell>
        <mxCell id="yI8B-SKyxIVj-lXM26K--9" value="Мяч" style="rounded=1;whiteSpace=wrap;html=1;fillColor=#76608a;fontColor=#ffffff;strokeColor=#432D57;" parent="1" vertex="1">
          <mxGeometry x="280" y="560" width="120" height="40" as="geometry" />
        </mxCell>
        <mxCell id="yI8B-SKyxIVj-lXM26K--14" value="Картинка" style="rounded=1;whiteSpace=wrap;html=1;fillColor=#dae8fc;strokeColor=#6c8ebf;" parent="1" vertex="1">
          <mxGeometry x="520" y="40" width="120" height="40" as="geometry" />
        </mxCell>
        <mxCell id="yI8B-SKyxIVj-lXM26K--16" value="Вниз - Клавиша &amp;lt;&amp;lt;s&amp;gt;&amp;gt;" style="rounded=1;whiteSpace=wrap;html=1;fillColor=#dae8fc;strokeColor=#6c8ebf;" parent="1" vertex="1">
          <mxGeometry x="520" y="120" width="120" height="40" as="geometry" />
        </mxCell>
        <mxCell id="yI8B-SKyxIVj-lXM26K--18" value="Вверх - Клавиша &amp;lt;&amp;lt;w&amp;gt;&amp;gt;" style="rounded=1;whiteSpace=wrap;html=1;fillColor=#dae8fc;strokeColor=#6c8ebf;" parent="1" vertex="1">
          <mxGeometry x="520" y="200" width="120" height="40" as="geometry" />
        </mxCell>
        <mxCell id="yI8B-SKyxIVj-lXM26K--21" value="Картинка" style="rounded=1;whiteSpace=wrap;html=1;fillColor=#dae8fc;strokeColor=#6c8ebf;" parent="1" vertex="1">
          <mxGeometry x="520" y="280" width="120" height="40" as="geometry" />
        </mxCell>
        <mxCell id="yI8B-SKyxIVj-lXM26K--23" value="Вниз - Клавиша &amp;lt;&amp;lt;Стрелка вниз&amp;gt;&amp;gt;" style="rounded=1;whiteSpace=wrap;html=1;fillColor=#dae8fc;strokeColor=#6c8ebf;" parent="1" vertex="1">
          <mxGeometry x="520" y="360" width="120" height="40" as="geometry" />
        </mxCell>
        <mxCell id="yI8B-SKyxIVj-lXM26K--26" value="Вверх - Клавиша &amp;lt;&amp;lt;Стрелка вверх&amp;gt;&amp;gt;" style="rounded=1;whiteSpace=wrap;html=1;fillColor=#dae8fc;strokeColor=#6c8ebf;" parent="1" vertex="1">
          <mxGeometry x="520" y="440" width="120" height="40" as="geometry" />
        </mxCell>
        <mxCell id="yI8B-SKyxIVj-lXM26K--28" value="Картинка&amp;nbsp;" style="rounded=1;whiteSpace=wrap;html=1;fillColor=#dae8fc;strokeColor=#6c8ebf;" parent="1" vertex="1">
          <mxGeometry x="520" y="520" width="120" height="40" as="geometry" />
        </mxCell>
        <mxCell id="yI8B-SKyxIVj-lXM26K--29" value="Перемещается автоматический" style="rounded=1;whiteSpace=wrap;html=1;fillColor=#dae8fc;strokeColor=#6c8ebf;" parent="1" vertex="1">
          <mxGeometry x="520" y="600" width="120" height="40" as="geometry" />
        </mxCell>
        <mxCell id="yI8B-SKyxIVj-lXM26K--41" style="edgeStyle=orthogonalEdgeStyle;rounded=0;orthogonalLoop=1;jettySize=auto;html=1;exitX=1;exitY=0.5;exitDx=0;exitDy=0;entryX=0;entryY=0.5;entryDx=0;entryDy=0;" parent="1" source="yI8B-SKyxIVj-lXM26K--32" target="yI8B-SKyxIVj-lXM26K--36" edge="1">
          <mxGeometry relative="1" as="geometry" />
        </mxCell>
        <mxCell id="yI8B-SKyxIVj-lXM26K--32" value="Столкновение ракетки и мяча" style="rounded=1;whiteSpace=wrap;html=1;fillColor=#76608a;fontColor=#ffffff;strokeColor=#432D57;" parent="1" vertex="1">
          <mxGeometry x="280" y="720" width="120" height="40" as="geometry" />
        </mxCell>
        <mxCell id="yI8B-SKyxIVj-lXM26K--42" style="edgeStyle=orthogonalEdgeStyle;rounded=0;orthogonalLoop=1;jettySize=auto;html=1;exitX=1;exitY=0.5;exitDx=0;exitDy=0;entryX=0;entryY=0.5;entryDx=0;entryDy=0;" parent="1" source="yI8B-SKyxIVj-lXM26K--33" target="yI8B-SKyxIVj-lXM26K--37" edge="1">
          <mxGeometry relative="1" as="geometry" />
        </mxCell>
        <mxCell id="yI8B-SKyxIVj-lXM26K--33" value="Столкновение мяча и верхней или нижней стенки" style="rounded=1;whiteSpace=wrap;html=1;fillColor=#76608a;fontColor=#ffffff;strokeColor=#432D57;" parent="1" vertex="1">
          <mxGeometry x="280" y="800" width="120" height="40" as="geometry" />
        </mxCell>
        <mxCell id="yI8B-SKyxIVj-lXM26K--43" style="edgeStyle=orthogonalEdgeStyle;rounded=0;orthogonalLoop=1;jettySize=auto;html=1;exitX=1;exitY=0.5;exitDx=0;exitDy=0;entryX=0;entryY=0.5;entryDx=0;entryDy=0;" parent="1" source="yI8B-SKyxIVj-lXM26K--34" target="yI8B-SKyxIVj-lXM26K--39" edge="1">
          <mxGeometry relative="1" as="geometry" />
        </mxCell>
        <mxCell id="yI8B-SKyxIVj-lXM26K--34" value="Мяч достиг боковой стенки" style="rounded=1;whiteSpace=wrap;html=1;fillColor=#76608a;fontColor=#ffffff;strokeColor=#432D57;" parent="1" vertex="1">
          <mxGeometry x="280" y="880" width="120" height="40" as="geometry" />
        </mxCell>
        <mxCell id="yI8B-SKyxIVj-lXM26K--35" style="edgeStyle=orthogonalEdgeStyle;rounded=0;orthogonalLoop=1;jettySize=auto;html=1;exitX=0.5;exitY=1;exitDx=0;exitDy=0;" parent="1" source="yI8B-SKyxIVj-lXM26K--34" target="yI8B-SKyxIVj-lXM26K--34" edge="1">
          <mxGeometry relative="1" as="geometry" />
        </mxCell>
        <mxCell id="yI8B-SKyxIVj-lXM26K--36" value="Отскок мяча" style="rounded=1;whiteSpace=wrap;html=1;fillColor=#dae8fc;strokeColor=#6c8ebf;" parent="1" vertex="1">
          <mxGeometry x="520" y="720" width="120" height="40" as="geometry" />
        </mxCell>
        <mxCell id="yI8B-SKyxIVj-lXM26K--37" value="Отскок мяча" style="rounded=1;whiteSpace=wrap;html=1;fillColor=#dae8fc;strokeColor=#6c8ebf;" parent="1" vertex="1">
          <mxGeometry x="520" y="800" width="120" height="40" as="geometry" />
        </mxCell>
        <mxCell id="zDislpeY9oyZwLALXK-k-9" style="edgeStyle=orthogonalEdgeStyle;rounded=0;orthogonalLoop=1;jettySize=auto;html=1;exitX=1;exitY=0.5;exitDx=0;exitDy=0;entryX=0;entryY=0.5;entryDx=0;entryDy=0;" edge="1" parent="1" source="yI8B-SKyxIVj-lXM26K--39" target="zDislpeY9oyZwLALXK-k-8">
          <mxGeometry relative="1" as="geometry" />
        </mxCell>
        <mxCell id="yI8B-SKyxIVj-lXM26K--39" value="Игрок с ракеткой у этой стенки проигрывает&amp;nbsp;" style="rounded=1;whiteSpace=wrap;html=1;fillColor=#dae8fc;strokeColor=#6c8ebf;" parent="1" vertex="1">
          <mxGeometry x="520" y="880" width="120" height="40" as="geometry" />
        </mxCell>
        <mxCell id="zDislpeY9oyZwLALXK-k-5" style="edgeStyle=orthogonalEdgeStyle;rounded=0;orthogonalLoop=1;jettySize=auto;html=1;exitX=1;exitY=0.5;exitDx=0;exitDy=0;entryX=0;entryY=0.5;entryDx=0;entryDy=0;" edge="1" parent="1" source="zDislpeY9oyZwLALXK-k-1" target="zDislpeY9oyZwLALXK-k-3">
          <mxGeometry relative="1" as="geometry" />
        </mxCell>
        <mxCell id="zDislpeY9oyZwLALXK-k-1" value="Музыка" style="rounded=1;whiteSpace=wrap;html=1;fillColor=#008a00;fontColor=#ffffff;strokeColor=#005700;" vertex="1" parent="1">
          <mxGeometry x="80" y="1000" width="120" height="40" as="geometry" />
        </mxCell>
        <mxCell id="zDislpeY9oyZwLALXK-k-3" value="При запуске игры будет играть музыка" style="rounded=1;whiteSpace=wrap;html=1;fillColor=#76608a;fontColor=#ffffff;strokeColor=#432D57;" vertex="1" parent="1">
          <mxGeometry x="280" y="1000" width="120" height="40" as="geometry" />
        </mxCell>
        <mxCell id="zDislpeY9oyZwLALXK-k-8" value="игроку напротив прибавляется один балл" style="rounded=1;whiteSpace=wrap;html=1;fillColor=#e3c800;fontColor=#000000;strokeColor=#B09500;" vertex="1" parent="1">
          <mxGeometry x="680" y="880" width="120" height="40" as="geometry" />
        </mxCell>
      </root>
    </mxGraphModel>
  </diagram>
</mxfile>
